<svg width="216" height="45" viewBox="0 0 216 45" fill="none" xmlns="http://www.w3.org/2000/svg">
<g id="Equifax" opacity="0.8">
<path fill-rule="evenodd" clip-rule="evenodd" d="M37.0942 1.52417L35.7748 7.72129H20.9267L19.8266 12.9241H33.0247L31.5951 19.1224H18.3982L16.9686 25.7648H32.5849L31.1553 32.2949H3L6.07963 18.569L9.70927 1.52417H37.0942ZM68.3278 19.1222H58.7594L78.0054 42.3641H65.138L56.89 32.2935C53.738 32.927 50.625 33.1375 47.4184 33.1831C44.2698 33.2265 38.8542 32.4962 36.4337 30.2994C33.7222 27.8438 34.5181 23.2548 35.1319 19.7157L35.1319 19.7156L35.1319 19.7156C35.255 19.0056 35.3708 18.338 35.4495 17.7382C35.8303 14.7966 36.8 11.0345 38.5236 8.60621C41.8648 3.8988 48.1766 3.21073 53.4808 3.40446C53.938 3.42117 54.4133 3.43444 54.9018 3.44808C58.5471 3.54989 62.9279 3.67223 66.0187 5.39631C68.4648 6.76689 69.5804 8.86117 69.4279 11.7059C69.3246 13.6005 68.9195 15.8321 68.5857 17.6718L68.5856 17.6718L68.5856 17.6719L68.5856 17.672L68.5856 17.6721L68.5855 17.6724C68.4911 18.1925 68.4024 18.6812 68.3278 19.1222ZM49.3003 28.0871C54.8439 28.1305 56.2768 24.1157 57.329 19.3437C57.4092 18.9805 57.4993 18.5993 57.5921 18.206L57.5923 18.2055C58.5141 14.3017 59.7162 9.21117 54.4698 8.82884C48.7648 8.41466 46.8609 13.6131 46.1116 18.5699C46.048 18.9882 45.9655 19.4426 45.8791 19.9183L45.8791 19.9184C45.2451 23.409 44.4021 28.0509 49.3003 28.0871ZM110.12 4.95436L107.15 18.5689L104.181 32.2947H115.398L121.447 4.95436H110.12ZM150.264 4.95436L148.944 10.3777H135.967L134.867 15.4692H145.865L145.205 18.5689L144.765 20.5607H133.656L131.128 32.2947H119.799L125.738 4.95436H150.264ZM74.0468 4.95436H85.4846L81.1958 24.3251C80.6714 26.6933 82.8804 27.928 84.7743 28.0917C87.2104 28.3043 89.3959 26.7734 89.9938 24.2149L94.5031 4.95547H105.831L101.321 25.4329C99.3908 30.7716 94.9183 32.8681 89.9805 33.3914C86.9187 33.7176 83.6776 33.4415 80.7549 32.9583L70.6376 20.7823L74.0468 4.95436ZM188.754 4.95436H174.347L183.255 18.6791L174.128 27.0907L171.488 4.95436H157.741L138.605 32.2947H146.524L150.592 26.3169H162.25L162.911 32.2947H179.737L187.654 23.9922L192.274 32.2947H206.352L196.893 17.6826L211.299 4.95436H200.301L193.153 12.0388L188.754 4.95436ZM160.492 11.1527L154.334 20.4506H161.592L160.492 11.1527Z" fill="#979797"/>
<path d="M35.7748 7.72129V8.52528H36.4256L36.5612 7.8887L35.7748 7.72129ZM37.0942 1.52417L37.8805 1.69159L38.0873 0.720172H37.0942V1.52417ZM20.9267 7.72129V6.91729H20.2749L20.14 7.55497L20.9267 7.72129ZM19.8266 12.9241L19.04 12.7578L18.8349 13.7281H19.8266V12.9241ZM33.0247 12.9241L33.8082 13.1048L34.0353 12.1201H33.0247V12.9241ZM31.5951 19.1224V19.9264H32.2348L32.3786 19.3031L31.5951 19.1224ZM18.3982 19.1224V18.3184H17.7488L17.6122 18.9532L18.3982 19.1224ZM16.9686 25.7648L16.1826 25.5957L15.9731 26.5688H16.9686V25.7648ZM32.5849 25.7648L33.3703 25.9368L33.584 24.9608H32.5849V25.7648ZM31.1553 32.2949V33.0989H31.8024L31.9407 32.4668L31.1553 32.2949ZM3 32.2949L2.21551 32.1188L1.99562 33.0989H3V32.2949ZM6.07963 18.569L6.86417 18.745L6.866 18.7365L6.07963 18.569ZM9.70927 1.52417V0.720172H9.05846L8.92291 1.35672L9.70927 1.52417ZM58.7594 19.1222V18.3182H57.0497L58.1401 19.6349L58.7594 19.1222ZM68.3278 19.1222V19.9261H69.0072L69.1206 19.2563L68.3278 19.1222ZM78.0054 42.3641V43.1681H79.715L78.6246 41.8513L78.0054 42.3641ZM65.138 42.3641L64.516 42.8735L64.7572 43.1681H65.138V42.3641ZM56.89 32.2935L57.512 31.7841L57.2056 31.41L56.7316 31.5053L56.89 32.2935ZM47.4184 33.1831L47.4295 33.987L47.4299 33.987L47.4184 33.1831ZM36.4337 30.2994L36.9741 29.7041L36.9734 29.7035L36.4337 30.2994ZM35.1319 19.7157L35.9249 19.8532L35.9297 19.8154L35.1319 19.7157ZM35.1319 19.7156L34.3369 19.5933L34.3341 19.6159L35.1319 19.7156ZM35.1319 19.7156L34.3396 19.5782L34.3372 19.5933L35.1319 19.7156ZM35.4495 17.7382L36.2467 17.8428L36.2468 17.8414L35.4495 17.7382ZM38.5236 8.60621L37.8679 8.14084L37.8679 8.14086L38.5236 8.60621ZM53.4808 3.40446L53.5102 2.601L53.5102 2.601L53.4808 3.40446ZM54.9018 3.44808L54.8793 4.25177L54.9018 3.44808ZM66.0187 5.39631L66.4117 4.69491L66.4103 4.69416L66.0187 5.39631ZM69.4279 11.7059L70.2307 11.7496L70.2307 11.7489L69.4279 11.7059ZM68.5857 17.6718L69.3625 17.8789L69.3709 17.8474L69.3767 17.8153L68.5857 17.6718ZM68.5856 17.6718L67.8088 17.4647L67.8013 17.4928L67.7958 17.5214L68.5856 17.6718ZM68.5856 17.6719L67.7958 17.5215L67.7946 17.5281L68.5856 17.6719ZM68.5856 17.672L67.7945 17.5282L67.7925 17.5398L68.5856 17.672ZM68.5856 17.6721L69.3763 17.8181L69.3786 17.8043L68.5856 17.6721ZM68.5855 17.6724L67.7949 17.5264L67.7945 17.5288L68.5855 17.6724ZM57.329 19.3437L56.5439 19.1701L56.5438 19.1706L57.329 19.3437ZM49.3003 28.0871L49.3066 27.2831L49.3063 27.2831L49.3003 28.0871ZM57.5921 18.206L58.3746 18.3908L58.3758 18.3859L57.5921 18.206ZM57.5923 18.2055L56.8098 18.0207L56.8086 18.0257L57.5923 18.2055ZM54.4698 8.82884L54.5282 8.02697L54.528 8.02696L54.4698 8.82884ZM46.1116 18.5699L46.9065 18.6906L46.9065 18.69L46.1116 18.5699ZM45.8791 19.9183L46.6689 20.0687L46.6702 20.0619L45.8791 19.9183ZM45.8791 19.9184L45.0892 19.768L45.088 19.7748L45.8791 19.9184ZM107.15 18.5689L106.365 18.3975L106.365 18.3989L107.15 18.5689ZM110.12 4.95436V4.15036H109.472L109.334 4.78303L110.12 4.95436ZM104.181 32.2947L103.395 32.1247L103.184 33.0987H104.181V32.2947ZM115.398 32.2947V33.0987H116.044L116.183 32.4684L115.398 32.2947ZM121.447 4.95436L122.232 5.12804L122.449 4.15036H121.447V4.95436ZM148.944 10.3777V11.1817H149.576L149.726 10.5677L148.944 10.3777ZM150.264 4.95436L151.045 5.14441L151.287 4.15036H150.264V4.95436ZM135.967 10.3777V9.57367H135.318L135.181 10.2079L135.967 10.3777ZM134.867 15.4692L134.081 15.2994L133.87 16.2732H134.867V15.4692ZM145.865 15.4692L146.651 15.6367L146.858 14.6652H145.865V15.4692ZM145.205 18.5689L145.99 18.7422L145.991 18.7364L145.205 18.5689ZM144.765 20.5607V21.3647H145.411L145.55 20.7341L144.765 20.5607ZM133.656 20.5607V19.7567H133.007L132.871 20.3914L133.656 20.5607ZM131.128 32.2947V33.0987H131.777L131.914 32.4641L131.128 32.2947ZM119.799 32.2947L119.014 32.124L118.802 33.0987H119.799V32.2947ZM125.738 4.95436V4.15036H125.09L124.952 4.7837L125.738 4.95436ZM85.4846 4.95436L86.2696 5.12816L86.4861 4.15036H85.4846V4.95436ZM74.0468 4.95436V4.15036H73.3975L73.2608 4.78507L74.0468 4.95436ZM81.1958 24.3251L81.9808 24.4989L81.9808 24.4989L81.1958 24.3251ZM84.7743 28.0917L84.8442 27.2907L84.8435 27.2907L84.7743 28.0917ZM89.9938 24.2149L89.211 24.0316L89.2109 24.0319L89.9938 24.2149ZM94.5031 4.95547V4.15148H93.8656L93.7202 4.77219L94.5031 4.95547ZM105.831 4.95547L106.616 5.12838L106.831 4.15148H105.831V4.95547ZM101.321 25.4329L102.078 25.7063L102.095 25.657L102.107 25.6058L101.321 25.4329ZM89.9805 33.3914L89.8957 32.5919L89.8953 32.5919L89.9805 33.3914ZM80.7549 32.9583L80.1366 33.4721L80.3281 33.7026L80.6238 33.7515L80.7549 32.9583ZM70.6376 20.7823L69.8516 20.613L69.7693 20.9953L70.0192 21.2961L70.6376 20.7823ZM174.347 4.95436V4.15036H172.867L173.673 5.39209L174.347 4.95436ZM188.754 4.95436L189.437 4.53024L189.202 4.15036H188.754V4.95436ZM183.255 18.6791L183.8 19.2703L184.299 18.8105L183.93 18.2414L183.255 18.6791ZM174.128 27.0907L173.33 27.1859L173.516 28.7481L174.673 27.682L174.128 27.0907ZM171.488 4.95436L172.286 4.85916L172.202 4.15036H171.488V4.95436ZM157.741 4.95436V4.15036H157.322L157.082 4.49334L157.741 4.95436ZM138.605 32.2947L137.947 31.8337L137.061 33.0987H138.605V32.2947ZM146.524 32.2947V33.0987H146.949L147.188 32.7471L146.524 32.2947ZM150.592 26.3169V25.5129H150.167L149.927 25.8646L150.592 26.3169ZM162.25 26.3169L163.049 26.2287L162.97 25.5129H162.25V26.3169ZM162.911 32.2947L162.111 32.383L162.19 33.0987H162.911V32.2947ZM179.737 32.2947V33.0987H180.081L180.319 32.8496L179.737 32.2947ZM187.654 23.9922L188.357 23.6013L187.826 22.6471L187.073 23.4373L187.654 23.9922ZM192.274 32.2947L191.571 32.6856L191.801 33.0987H192.274V32.2947ZM206.352 32.2947V33.0987H207.83L207.027 31.8578L206.352 32.2947ZM196.893 17.6826L196.361 17.0801L195.842 17.5384L196.218 18.1195L196.893 17.6826ZM211.299 4.95436L211.832 5.55688L213.424 4.15036H211.299V4.95436ZM200.301 4.95436V4.15036H199.97L199.735 4.38332L200.301 4.95436ZM193.153 12.0388L192.47 12.463L193.003 13.3202L193.719 12.6099L193.153 12.0388ZM154.334 20.4506L153.663 20.0066L152.837 21.2546H154.334V20.4506ZM160.492 11.1527L161.29 11.0582L161.033 8.88017L159.822 10.7087L160.492 11.1527ZM161.592 20.4506V21.2546H162.497L162.39 20.3561L161.592 20.4506ZM36.5612 7.8887L37.8805 1.69159L36.3078 1.35675L34.9884 7.55387L36.5612 7.8887ZM20.9267 8.52528H35.7748V6.91729H20.9267V8.52528ZM20.6132 13.0905L21.7133 7.8876L20.14 7.55497L19.04 12.7578L20.6132 13.0905ZM33.0247 12.1201H19.8266V13.7281H33.0247V12.1201ZM32.3786 19.3031L33.8082 13.1048L32.2413 12.7435L30.8117 18.9417L32.3786 19.3031ZM18.3982 19.9264H31.5951V18.3184H18.3982V19.9264ZM17.7546 25.934L19.1842 19.2915L17.6122 18.9532L16.1826 25.5957L17.7546 25.934ZM32.5849 24.9608H16.9686V26.5688H32.5849V24.9608ZM31.9407 32.4668L33.3703 25.9368L31.7995 25.5929L30.37 32.1229L31.9407 32.4668ZM3 33.0989H31.1553V31.4909H3V33.0989ZM5.29514 18.393L2.21551 32.1188L3.78449 32.4709L6.86412 18.745L5.29514 18.393ZM8.92291 1.35672L5.29326 18.4016L6.866 18.7365L10.4956 1.69162L8.92291 1.35672ZM37.0942 0.720172H9.70927V2.32817H37.0942V0.720172ZM58.7594 19.9261H68.3278V18.3182H58.7594V19.9261ZM78.6246 41.8513L59.3786 18.6094L58.1401 19.6349L77.3862 42.8769L78.6246 41.8513ZM65.138 43.1681H78.0054V41.5601H65.138V43.1681ZM56.268 32.803L64.516 42.8735L65.76 41.8547L57.512 31.7841L56.268 32.803ZM47.4299 33.987C50.6631 33.941 53.8299 33.7286 57.0484 33.0818L56.7316 31.5053C53.6461 32.1254 50.5868 32.3339 47.407 32.3792L47.4299 33.987ZM35.8934 30.8948C37.2629 32.1377 39.3919 32.9064 41.48 33.3665C43.5946 33.8325 45.7977 34.0095 47.4295 33.987L47.4073 32.3792C45.8905 32.4001 43.8114 32.2337 41.826 31.7962C39.8141 31.3528 38.0251 30.6579 36.9741 29.7041L35.8934 30.8948ZM34.3397 19.5783C34.0356 21.3315 33.6657 23.4468 33.7322 25.4407C33.7988 27.4382 34.3071 29.4582 35.894 30.8954L36.9734 29.7035C35.8488 28.685 35.3992 27.1827 35.3393 25.3871C35.2793 23.5878 35.6143 21.639 35.924 19.8531L34.3397 19.5783ZM34.3341 19.6159L34.3341 19.616L35.9297 19.8154L35.9297 19.8154L34.3341 19.6159ZM34.3372 19.5933L34.3372 19.5934L35.9265 19.8379L35.9265 19.8378L34.3372 19.5933ZM34.6523 17.6336C34.5762 18.2137 34.4636 18.8639 34.3397 19.5782L35.9241 19.853C36.0464 19.1474 36.1654 18.4622 36.2467 17.8428L34.6523 17.6336ZM37.8679 8.14086C36.0302 10.73 35.0387 14.6491 34.6522 17.635L36.2468 17.8414C36.6219 14.9442 37.5699 11.339 39.1792 9.07155L37.8679 8.14086ZM53.5102 2.601C48.2031 2.40716 41.4749 3.05908 37.8679 8.14084L39.1792 9.07157C42.2547 4.73853 48.1501 4.0143 53.4515 4.20792L53.5102 2.601ZM54.9242 2.6444C54.435 2.63074 53.9633 2.61756 53.5102 2.601L53.4515 4.20792C53.9127 4.22478 54.3915 4.23814 54.8793 4.25177L54.9242 2.6444ZM66.4103 4.69416C64.739 3.76186 62.7578 3.28188 60.7746 3.01693C58.7887 2.75159 56.7399 2.69511 54.9242 2.6444L54.8793 4.25177C56.7089 4.30286 58.6732 4.35845 60.5617 4.61076C62.453 4.86344 64.2076 5.30668 65.627 6.09846L66.4103 4.69416ZM70.2307 11.7489C70.3132 10.2096 70.0545 8.82211 69.4057 7.61714C68.7561 6.41063 67.7449 5.44193 66.4117 4.69491L65.6257 6.09771C66.7385 6.72126 67.5083 7.485 67.9899 8.37945C68.4723 9.27544 68.695 10.3574 68.625 11.6628L70.2307 11.7489ZM69.3767 17.8153C69.7083 15.9884 70.1241 13.7043 70.2307 11.7496L68.6251 11.6621C68.525 13.4967 68.1308 15.6759 67.7946 17.5282L69.3767 17.8153ZM69.3625 17.879L69.3625 17.8789L67.8088 17.4646L67.8088 17.4647L69.3625 17.879ZM69.3754 17.8223L69.3754 17.8223L67.7958 17.5214L67.7958 17.5215L69.3754 17.8223ZM69.3766 17.8158L69.3766 17.8157L67.7946 17.5281L67.7946 17.5282L69.3766 17.8158ZM69.3786 17.8043L69.3787 17.8042L67.7925 17.5398L67.7925 17.5399L69.3786 17.8043ZM69.3762 17.8183L69.3762 17.8181L67.7949 17.5261L67.7949 17.5264L69.3762 17.8183ZM69.1206 19.2563C69.1942 18.821 69.282 18.3373 69.3766 17.816L67.7945 17.5288C67.7003 18.0477 67.6107 18.5414 67.5351 18.988L69.1206 19.2563ZM56.5438 19.1706C56.0169 21.5605 55.4225 23.6003 54.3531 25.0422C53.335 26.4152 51.8416 27.303 49.3066 27.2831L49.294 28.8911C52.3026 28.9146 54.2975 27.8167 55.6447 26.0001C56.9407 24.2525 57.5889 21.8988 58.1141 19.5168L56.5438 19.1706ZM56.8097 18.0213C56.7171 18.4133 56.6257 18.8003 56.5439 19.1701L58.114 19.5172C58.1928 19.1607 58.2815 18.7853 58.3746 18.3908L56.8097 18.0213ZM56.8086 18.0257L56.8085 18.0262L58.3758 18.3859L58.3759 18.3854L56.8086 18.0257ZM54.4113 9.63072C55.5921 9.71676 56.3021 10.0581 56.741 10.4835C57.1824 10.9115 57.4425 11.5145 57.5471 12.3024C57.7636 13.9334 57.2817 16.0224 56.8098 18.0207L58.3747 18.3903C58.8247 16.4847 59.4047 14.0766 59.1411 12.0908C59.0056 11.0703 58.6402 10.0851 57.8602 9.32899C57.0778 8.57047 55.9706 8.13209 54.5282 8.02697L54.4113 9.63072ZM46.9065 18.69C47.2761 16.2452 47.9177 13.8543 49.095 12.1405C50.233 10.4838 51.8725 9.4464 54.4116 9.63073L54.528 8.02696C51.362 7.79711 49.1971 9.15186 47.7696 11.23C46.3813 13.251 45.6963 15.9377 45.3166 18.4497L46.9065 18.69ZM46.6702 20.0619C46.7561 19.589 46.8408 19.1227 46.9065 18.6906L45.3167 18.4491C45.2552 18.8538 45.1749 19.2961 45.0881 19.7746L46.6702 20.0619ZM46.6689 20.0689L46.6689 20.0687L45.0893 19.7678L45.0893 19.768L46.6689 20.0689ZM49.3063 27.2831C48.2066 27.275 47.5391 27.0103 47.1218 26.6661C46.7052 26.3225 46.4401 25.8189 46.3033 25.1395C46.0178 23.7207 46.3444 21.8559 46.6701 20.0621L45.088 19.7748C44.7799 21.4716 44.3679 23.673 44.727 25.4568C44.9125 26.3787 45.3154 27.2605 46.0986 27.9065C46.881 28.552 47.9449 28.8811 49.2944 28.8911L49.3063 27.2831ZM107.936 18.7402L110.905 5.12569L109.334 4.78303L106.365 18.3975L107.936 18.7402ZM104.967 32.4647L107.936 18.7389L106.365 18.3989L103.395 32.1247L104.967 32.4647ZM115.398 31.4907H104.181V33.0987H115.398V31.4907ZM120.662 4.78068L114.613 32.121L116.183 32.4684L122.232 5.12804L120.662 4.78068ZM110.12 5.75836H121.447V4.15036H110.12V5.75836ZM149.726 10.5677L151.045 5.14441L149.483 4.76431L148.163 10.1876L149.726 10.5677ZM135.967 11.1817H148.944V9.57367H135.967V11.1817ZM135.653 15.639L136.753 10.5475L135.181 10.2079L134.081 15.2994L135.653 15.639ZM145.865 14.6652H134.867V16.2732H145.865V14.6652ZM145.991 18.7364L146.651 15.6367L145.078 15.3017L144.418 18.4014L145.991 18.7364ZM145.55 20.7341L145.99 18.7422L144.419 18.3955L143.98 20.3874L145.55 20.7341ZM133.656 21.3647H144.765V19.7567H133.656V21.3647ZM131.914 32.4641L134.442 20.7301L132.871 20.3914L130.342 32.1253L131.914 32.4641ZM119.799 33.0987H131.128V31.4907H119.799V33.0987ZM124.952 4.7837L119.014 32.124L120.585 32.4654L126.524 5.12502L124.952 4.7837ZM150.264 4.15036H125.738V5.75836H150.264V4.15036ZM85.4846 4.15036H74.0468V5.75836H85.4846V4.15036ZM81.9808 24.4989L86.2696 5.12816L84.6996 4.78056L80.4109 24.1513L81.9808 24.4989ZM84.8435 27.2907C84.0198 27.2195 83.1686 26.9148 82.6039 26.4267C82.0787 25.9728 81.7895 25.363 81.9808 24.4989L80.4109 24.1513C80.0778 25.6553 80.6309 26.8469 81.5525 27.6434C82.4346 28.4057 83.6348 28.8002 84.705 28.8927L84.8435 27.2907ZM89.2109 24.0319C88.7029 26.2061 86.8767 27.4681 84.8442 27.2907L84.7044 28.8926C87.544 29.1405 90.089 27.3407 90.7767 24.3978L89.2109 24.0319ZM93.7202 4.77219L89.211 24.0316L90.7767 24.3981L95.2859 5.13876L93.7202 4.77219ZM105.831 4.15148H94.5031V5.75947H105.831V4.15148ZM102.107 25.6058L106.616 5.12838L105.045 4.78257L100.536 25.26L102.107 25.6058ZM90.0652 34.1909C95.1759 33.6493 100.003 31.442 102.078 25.7063L100.565 25.1595C98.7783 30.1012 94.6607 32.0869 89.8957 32.5919L90.0652 34.1909ZM80.6238 33.7515C83.585 34.2411 86.9048 34.5276 90.0657 34.1909L89.8953 32.5919C86.9325 32.9076 83.7702 32.6419 80.8861 32.1651L80.6238 33.7515ZM70.0192 21.2961L80.1366 33.4721L81.3733 32.4445L71.256 20.2684L70.0192 21.2961ZM73.2608 4.78507L69.8516 20.613L71.4236 20.9516L74.8328 5.12365L73.2608 4.78507ZM174.347 5.75836H188.754V4.15036H174.347V5.75836ZM183.93 18.2414L175.022 4.51664L173.673 5.39209L182.581 19.1168L183.93 18.2414ZM174.673 27.682L183.8 19.2703L182.711 18.0879L173.583 26.4995L174.673 27.682ZM170.69 5.04957L173.33 27.1859L174.926 26.9955L172.286 4.85916L170.69 5.04957ZM157.741 5.75836H171.488V4.15036H157.741V5.75836ZM139.264 32.7557L158.4 5.41538L157.082 4.49334L137.947 31.8337L139.264 32.7557ZM146.524 31.4907H138.605V33.0987H146.524V31.4907ZM149.927 25.8646L145.859 31.8424L147.188 32.7471L151.257 26.7693L149.927 25.8646ZM162.25 25.5129H150.592V27.1209H162.25V25.5129ZM163.71 32.2064L163.049 26.2287L161.451 26.4052L162.111 32.383L163.71 32.2064ZM179.737 31.4907H162.911V33.0987H179.737V31.4907ZM187.073 23.4373L179.155 31.7399L180.319 32.8496L188.236 24.547L187.073 23.4373ZM192.976 31.9038L188.357 23.6013L186.952 24.3831L191.571 32.6856L192.976 31.9038ZM206.352 31.4907H192.274V33.0987H206.352V31.4907ZM196.218 18.1195L205.677 32.7316L207.027 31.8578L197.568 17.2457L196.218 18.1195ZM210.767 4.35184L196.361 17.0801L197.426 18.2851L211.832 5.55688L210.767 4.35184ZM200.301 5.75836H211.299V4.15036H200.301V5.75836ZM193.719 12.6099L200.867 5.5254L199.735 4.38332L192.587 11.4678L193.719 12.6099ZM188.071 5.37848L192.47 12.463L193.836 11.6147L189.437 4.53024L188.071 5.37848ZM155.004 20.8945L161.162 11.5966L159.822 10.7087L153.663 20.0066L155.004 20.8945ZM161.592 19.6466H154.334V21.2546H161.592V19.6466ZM159.693 11.2471L160.793 20.545L162.39 20.3561L161.29 11.0582L159.693 11.2471Z" fill="#979797"/>
</g>
</svg>
