<svg width="225" height="78" viewBox="0 0 225 78" fill="none" xmlns="http://www.w3.org/2000/svg">
<g id="experian_logo" opacity="0.9">
<path id="XMLID_3_" d="M37.3557 18.9406H28.6804C26.0908 18.9406 24.019 16.8689 24.019 14.2793V5.60398C24.019 3.07908 26.0908 0.942627 28.6804 0.942627H37.3557C39.8806 0.942627 42.0171 3.01434 42.0171 5.60398V14.2793C42.0171 16.8689 39.9453 18.9406 37.3557 18.9406Z" fill="#979797"/>
<path id="XMLID_4_" d="M14.8904 38.3628H5.24403C2.33068 38.3628 0 35.9674 0 33.1188V23.3429C0 20.4943 2.39542 18.0989 5.24403 18.0989H15.0199C17.9333 18.0989 20.264 20.4943 20.264 23.3429V33.1188C20.1992 36.0322 17.8685 38.3628 14.8904 38.3628Z" fill="#979797"/>
<path id="XMLID_5_" d="M14.0504 58.562H8.09419C6.34618 58.562 4.92188 57.1377 4.92188 55.3897V49.4335C4.92188 47.6855 6.34618 46.2612 8.09419 46.2612H14.0504C15.7984 46.2612 17.2227 47.6855 17.2227 49.4335V55.3897C17.2227 57.1377 15.7984 58.562 14.0504 58.562Z" fill="#979797"/>
<path id="Combined Shape" fill-rule="evenodd" clip-rule="evenodd" d="M50.8866 22.5014H55.7422C57.2312 22.5014 58.4613 21.2713 58.3318 19.9118V15.0562C58.3318 13.6319 57.1665 12.4666 55.7422 12.4666H50.8866C49.4623 12.4666 48.297 13.6319 48.297 15.0562V19.9118C48.297 21.3361 49.4623 22.5014 50.8866 22.5014ZM22.9184 77.3369H29.9751C32.1116 77.3369 33.7949 75.7184 33.7949 73.5172V66.4604C33.7949 64.3239 32.0468 62.6407 29.9751 62.6407H22.9184C20.7819 62.6407 19.0986 64.3887 19.0986 66.4604V73.5172C19.0986 75.6536 20.8466 77.3369 22.9184 77.3369Z" fill="#979797"/>
<path id="Combined Shape_2" fill-rule="evenodd" clip-rule="evenodd" d="M162.503 25.7394C164.057 25.7394 165.287 24.4445 165.287 22.9555C165.287 21.4017 163.992 20.1716 162.503 20.1716C160.949 20.1716 159.654 21.4665 159.654 22.9555C159.654 24.4445 160.885 25.7394 162.503 25.7394ZM59.9537 55.7142C59.5653 56.3616 58.8531 56.6853 58.0763 56.6853C57.6878 56.6853 57.1051 56.6206 56.7814 56.3616C56.134 55.9732 55.7456 55.1963 55.7456 54.3547C55.7456 53.9662 55.8103 53.5778 56.0693 53.2541L62.5434 43.025L56.0693 32.7959C55.8103 32.4722 55.7456 32.019 55.7456 31.6953C55.7456 30.9184 56.134 30.1415 56.8462 29.6883C57.2346 29.4294 57.6231 29.3646 58.0115 29.3646C58.7884 29.3646 59.5006 29.6883 60.0185 30.3357L65.3273 38.7521L70.7008 30.3357C71.0892 29.6883 71.8661 29.3646 72.7077 29.3646C73.0962 29.3646 73.4846 29.4294 73.8731 29.6883C74.5852 30.0768 74.9737 30.8537 74.9737 31.6953C74.9737 32.0837 74.9089 32.4722 74.65 32.7959L68.1759 43.025L74.65 53.2541C74.9089 53.5778 74.9737 53.9662 74.9737 54.3547C74.9737 55.1316 74.5852 56.0379 73.9378 56.3616C73.5494 56.6206 73.0962 56.6853 72.643 56.6853C71.8661 56.6853 71.2187 56.3616 70.7655 55.7142L65.392 47.3626L59.9537 55.7142ZM83.1953 32.4727C85.6554 30.2715 88.9572 28.912 92.5827 28.912C100.416 28.912 106.632 35.1919 106.632 42.9608C106.632 50.665 100.352 56.9449 92.5827 56.9449C89.022 56.9449 85.6554 55.5853 83.1953 53.3841V65.3612C83.1953 66.5265 82.0947 67.5624 80.8646 67.5624C79.764 67.5624 78.5339 66.5265 78.5339 65.3612V31.3721C78.5339 30.2068 79.6345 29.1709 80.8646 29.1709C82.1594 29.1709 83.1953 30.2068 83.1953 31.3721V32.4727ZM92.453 33.5738C87.2089 33.5738 83.0655 37.7173 83.0655 42.9613C83.0655 48.2053 87.2089 52.3488 92.453 52.3488C97.697 52.3488 101.84 48.2053 101.84 42.9613C101.905 37.7173 97.7617 33.5738 92.453 33.5738ZM146.319 40.4359V54.4847C146.319 55.6501 145.218 56.6859 143.988 56.6859C142.693 56.6859 141.657 55.6501 141.657 54.4847V31.3722C141.657 30.2068 142.758 29.171 143.988 29.171C145.088 29.171 146.189 30.1421 146.319 31.3074C148.196 29.8831 150.656 28.9767 153.311 28.9767C154.735 28.9767 155.835 30.0773 155.835 31.3074C155.835 32.6022 154.735 33.7028 153.311 33.7028C149.685 33.7676 146.319 34.9977 146.319 40.4359ZM160.173 31.3715C160.173 30.2061 161.209 29.1703 162.503 29.1703C163.669 29.1703 164.769 30.2061 164.834 31.3715V54.5488C164.834 55.7141 163.604 56.75 162.503 56.75C161.273 56.75 160.173 55.7141 160.173 54.5488V31.3715ZM194.291 29.1709C193.06 29.1709 191.96 30.2068 191.96 31.3721V32.4727C189.37 30.2715 186.133 28.912 182.572 28.912C174.803 28.912 168.524 35.1919 168.524 42.896C168.524 50.665 174.739 56.9449 182.572 56.9449C186.198 56.9449 189.435 55.5853 191.96 53.3841V54.5494C191.96 55.7148 192.996 56.7506 194.291 56.7506C195.521 56.7506 196.621 55.7148 196.621 54.5494V31.3721C196.621 30.2068 195.391 29.1709 194.291 29.1709ZM192.025 42.8961C192.025 48.1402 187.881 52.2836 182.637 52.2836C177.393 52.2836 173.25 48.2049 173.25 42.8961C173.25 37.6521 177.393 33.5087 182.637 33.5087C187.881 33.5087 192.025 37.6521 192.025 42.8961ZM212.938 33.5086C216.822 33.5086 220.124 36.8104 220.124 40.6949V54.4847C220.124 55.6501 221.16 56.6859 222.455 56.6859C223.685 56.6859 224.785 55.6501 224.785 54.4847V40.0475C224.785 33.8971 219.153 28.9767 212.873 28.9767C210.219 28.9767 207.759 29.8184 205.752 31.3074C205.622 30.1421 204.521 29.171 203.421 29.171C202.191 29.171 201.09 30.2068 201.09 31.3722V54.5495C201.09 55.7148 202.126 56.7507 203.421 56.7507C204.651 56.7507 205.752 55.7148 205.752 54.5495V40.5007C205.752 34.9977 209.183 33.5086 212.938 33.5086ZM40.4014 29.0415C47.9761 29.0415 54.3207 35.0624 54.3854 42.184C54.3854 43.3493 53.6085 44.3204 52.5727 44.7736L52.3137 44.8383H52.249H52.1842H52.1195H31.2081C31.985 49.3055 35.8047 52.4778 40.4661 52.4778C42.9263 52.4778 45.2569 51.7009 46.8107 50.0176C47.2639 49.435 47.9113 49.0465 48.6235 49.0465C49.8535 49.0465 50.9541 50.0824 50.9541 51.3772C50.9541 52.0246 50.6304 52.7368 50.1773 53.1252C47.5876 55.6501 44.1563 57.0744 40.4014 57.0744C32.6324 57.0744 26.3525 50.8593 26.3525 43.0256C26.3525 35.3214 32.5677 29.0415 40.4014 29.0415ZM49.336 40.0471C48.1707 36.2921 44.6747 33.573 40.4665 33.573C36.1936 33.573 32.6976 36.2921 31.4675 40.0471H49.336ZM137.836 42.184C137.772 35.0624 131.362 29.0415 123.852 29.0415C116.019 29.0415 109.803 35.3214 109.803 43.0256C109.803 50.8593 116.083 57.0744 123.852 57.0744C127.607 57.0744 131.039 55.6501 133.628 53.1252C134.081 52.7368 134.405 52.0246 134.405 51.3772C134.405 50.0824 133.304 49.0465 132.074 49.0465C131.362 49.0465 130.715 49.435 130.262 50.0176C128.708 51.7009 126.377 52.4778 123.917 52.4778C119.256 52.4778 115.436 49.3055 114.659 44.8383H135.57H135.635H135.7H135.829H135.894C136.93 44.3852 137.836 43.3493 137.836 42.184ZM123.853 33.573C128.061 33.573 131.557 36.2921 132.722 40.0471H114.919C116.084 36.2921 119.58 33.573 123.853 33.573Z" fill="#979797"/>
</g>
</svg>
