<svg width="19" height="13" viewBox="0 0 19 13" fill="none" xmlns="http://www.w3.org/2000/svg">
<rect x="1" y="1" width="16.4" height="11" rx="0.627907" stroke="#27D381" stroke-width="1.25581"/>
<path d="M10.8035 5.27889L10.8431 5.30948C10.8771 5.26541 10.8956 5.21596 10.8956 5.16222L10.8956 5.16097C10.8907 4.96453 10.8292 4.76475 10.7138 4.56215C10.5974 4.35273 10.4284 4.16863 10.2082 4.00948C9.9952 3.85549 9.73491 3.7517 9.42895 3.69673V3.18667C9.42895 3.12326 9.40852 3.06702 9.36695 3.02095L9.32992 3.05436L9.36695 3.02095C9.3252 2.97468 9.27217 2.95 9.21053 2.95H8.78246C8.72081 2.95 8.66778 2.97468 8.62603 3.02095L8.66316 3.05444L8.62603 3.02095C8.58446 3.06702 8.56404 3.12326 8.56404 3.18667V3.67996C8.11243 3.74809 7.75292 3.9213 7.48981 4.2025C7.21876 4.49218 7.08333 4.84419 7.08333 5.25556C7.08333 5.57264 7.14291 5.83864 7.26549 6.05059L7.26548 6.05059L7.26593 6.05133C7.39268 6.26206 7.57964 6.43627 7.82453 6.57464L7.82452 6.57465L7.82525 6.57505C8.06816 6.70702 8.36441 6.81977 8.71323 6.91381C9.01623 6.99648 9.25958 7.0762 9.44397 7.15284L9.44396 7.15285L9.44508 7.15328C9.62881 7.22456 9.75629 7.30397 9.83305 7.38905L9.83299 7.3891L9.83497 7.39106C9.91253 7.46797 9.95351 7.57342 9.95351 7.71333C9.95351 7.91092 9.87846 8.06446 9.72764 8.17908C9.5766 8.29387 9.33933 8.35556 9.00702 8.35556C8.80104 8.35556 8.63303 8.32506 8.50097 8.26651C8.36634 8.20683 8.26338 8.13344 8.18983 8.04751C8.11814 7.95294 8.06752 7.85961 8.03692 7.76756L8.03717 7.76748L8.03505 7.76277C8.01367 7.71537 7.98377 7.67552 7.94504 7.64439C7.90109 7.60355 7.84381 7.58556 7.77895 7.58556H7.15439C7.09847 7.58556 7.04897 7.60674 7.00767 7.64597L7.00757 7.64586L7.00498 7.64873C6.96766 7.69009 6.95 7.74136 6.94996 7.79889L6.95004 7.80094C6.95975 8.03767 7.02777 8.2658 7.15309 8.48483L7.15336 8.48529C7.27969 8.70071 7.46598 8.88507 7.71018 9.03897L7.71085 9.03938C7.94661 9.18284 8.23151 9.27373 8.56404 9.31359V9.81333C8.56404 9.87674 8.58446 9.93298 8.62603 9.97905C8.66778 10.0253 8.72081 10.05 8.78246 10.05H9.21053C9.27217 10.05 9.3252 10.0253 9.36695 9.97905C9.40852 9.93298 9.42895 9.87674 9.42895 9.81333V9.32043C9.74348 9.27613 10.0206 9.18827 10.2593 9.05596L10.2593 9.05596L10.26 9.05556C10.5101 8.91163 10.7038 8.72422 10.8396 8.49319C10.9804 8.25636 11.05 7.9829 11.05 7.67444C11.05 7.36246 10.9881 7.10134 10.8605 6.89435C10.7378 6.68251 10.5451 6.51075 10.2862 6.37783C10.0337 6.24586 9.70714 6.13072 9.30775 6.03171C9.02385 5.94916 8.79702 5.87211 8.62659 5.80066C8.46248 5.72989 8.34927 5.65123 8.28152 5.567C8.21463 5.47872 8.17982 5.36818 8.17982 5.23222C8.17982 5.02733 8.24929 4.88376 8.38257 4.7913C8.5262 4.69493 8.71892 4.64444 8.96491 4.64444C9.2053 4.64444 9.39514 4.69969 9.53871 4.80577C9.68447 4.91347 9.76448 5.03982 9.78561 5.18498L9.78409 5.1852L9.78883 5.19675C9.81468 5.25979 9.85115 5.30995 9.90208 5.33818C9.9468 5.36296 9.99489 5.37556 10.0456 5.37556H10.6982C10.7572 5.37556 10.8087 5.35521 10.8435 5.30894L10.8035 5.27889ZM10.8035 5.27889C10.7801 5.31 10.745 5.32556 10.6982 5.32556H10.0456C10.0035 5.32556 9.96374 5.31519 9.92632 5.29444C9.88889 5.2737 9.85848 5.23481 9.83509 5.17778L9.37895 3.73889C9.69708 3.79074 9.96374 3.89444 10.1789 4.05C10.3942 4.20556 10.5579 4.38444 10.6702 4.58667C10.7825 4.7837 10.8409 4.97556 10.8456 5.16222C10.8456 5.2037 10.8316 5.24259 10.8035 5.27889Z" fill="#27D381" stroke="#27D381" stroke-width="0.1"/>
</svg>
