<svg width="24" height="24" viewBox="0 0 24 24" fill="none" xmlns="http://www.w3.org/2000/svg">
<path fill-rule="evenodd" clip-rule="evenodd" d="M11.9303 4.18677C7.08301 4.18677 3.13965 8.13013 3.13965 12.9775C3.13866 15.0174 3.85133 16.9935 5.15418 18.5632L5.36003 18.8379H18.5014L18.7072 18.5632C20.0098 16.9934 20.7222 15.0173 20.721 12.9775C20.721 8.13013 16.7777 4.18677 11.9303 4.18677ZM11.9302 5.65129C15.9849 5.65129 19.2558 8.92216 19.2558 12.9769C19.2558 14.6368 18.6749 16.1445 17.7445 17.3722H6.11591C5.18556 16.1445 4.60464 14.6368 4.60464 12.9769C4.60464 8.92216 7.87551 5.65129 11.9302 5.65129ZM11.9302 6.38467C11.5273 6.38467 11.1977 6.71432 11.1977 7.11723C11.1977 7.52013 11.5273 7.84978 11.9302 7.84978C12.3331 7.84978 12.6628 7.52013 12.6628 7.11723C12.6628 6.71432 12.3331 6.38467 11.9302 6.38467ZM8.99978 7.16219C8.59688 7.16219 8.26723 7.49111 8.26723 7.89475C8.26723 8.29766 8.59688 8.62731 8.99978 8.62731C9.40269 8.62731 9.73234 8.29766 9.73234 7.89475C9.73234 7.49111 9.40269 7.16219 8.99978 7.16219ZM14.8604 7.16219C14.4574 7.16219 14.1278 7.49111 14.1278 7.89475C14.1278 8.29766 14.4574 8.62731 14.8604 8.62731C15.2633 8.62731 15.5929 8.29766 15.5929 7.89475C15.5929 7.49111 15.2633 7.16219 14.8604 7.16219ZM6.84749 9.31572C6.44458 9.31572 6.11493 9.64537 6.11493 10.0483C6.11493 10.4512 6.44458 10.7808 6.84749 10.7808C7.25113 10.7808 7.58004 10.4512 7.58004 10.0483C7.58004 9.64537 7.25113 9.31572 6.84749 9.31572ZM16.8059 9.33749L12.6626 11.7183C12.441 11.5858 12.1882 11.5148 11.93 11.5125C11.1209 11.5125 10.4649 12.1684 10.4649 12.9776C10.4649 13.7867 11.1209 14.4427 11.93 14.4427C12.7304 14.4428 13.3827 13.8006 13.3951 13.0003V12.9776L17.5385 10.6195L16.8059 9.33749ZM6.06965 12.2443C5.66675 12.2443 5.3371 12.574 5.3371 12.9769C5.3371 13.3798 5.66675 13.7094 6.06965 13.7094C6.47256 13.7094 6.80221 13.3798 6.80221 12.9769C6.80221 12.574 6.47256 12.2443 6.06965 12.2443ZM17.7905 12.2443C17.3876 12.2443 17.0579 12.574 17.0579 12.9769C17.0579 13.3798 17.3876 13.7094 17.7905 13.7094C18.1934 13.7094 18.523 13.3798 18.523 12.9769C18.523 12.574 18.1934 12.2443 17.7905 12.2443ZM6.84749 15.1754C6.44458 15.1754 6.11493 15.505 6.11493 15.9079C6.11493 16.3108 6.44458 16.6405 6.84749 16.6405C7.25113 16.6405 7.58004 16.3108 7.58004 15.9079C7.58004 15.505 7.25113 15.1754 6.84749 15.1754ZM17.0126 15.1754C16.609 15.1754 16.2801 15.505 16.2801 15.9079C16.2801 16.3108 16.609 16.6405 17.0126 16.6405C17.4156 16.6405 17.7452 16.3108 17.7452 15.9079C17.7452 15.505 17.4156 15.1754 17.0126 15.1754Z" fill="#27D381"/>
</svg>
