<svg width="85" height="23" viewBox="0 0 85 23" fill="none" xmlns="http://www.w3.org/2000/svg">
<path id="transunion" fill-rule="evenodd" clip-rule="evenodd" d="M77.441 0C74.6813 0 72.2613 1.48598 70.9876 3.73619C70.5206 4.62778 70.4357 5.392 70.8178 6.02885C71.2424 6.79307 72.2189 6.87798 72.7283 6.87798H73.6624L73.3227 7.9394C73.1104 8.57625 73.1954 9.29801 73.535 9.76503C73.8747 10.2321 74.3841 10.4868 75.021 10.4868C75.4456 10.4868 75.9126 10.4019 76.3372 10.2321C76.2098 10.0622 76.1249 9.8924 76.04 9.68012C76.0272 9.62905 76.0106 9.57797 75.9936 9.52575C75.9541 9.40431 75.9126 9.27663 75.9126 9.12818C75.6578 9.25555 75.3606 9.29801 75.0635 9.29801C74.8936 9.29801 74.6389 9.25555 74.5115 9.04327C74.3841 8.87344 74.3417 8.6187 74.4266 8.32151L74.8936 6.87798H76.3796L76.7617 5.64674H75.3182L75.955 3.65127H74.6813L74.0445 5.64674H72.6859C72.2613 5.64674 72.0066 5.51937 71.8792 5.30708C71.7518 5.05234 71.8792 4.54286 72.2189 3.94847V3.90601C73.3652 2.2502 75.2333 1.14633 77.3986 1.14633C80.8376 1.14633 83.6397 3.94847 83.6397 7.38746C83.6397 10.8265 80.8376 13.6286 77.3986 13.6286C74.3417 13.6286 71.7943 11.4208 71.2424 8.53379L70.0536 8.78853C70.7329 12.2275 73.7473 14.8598 77.3986 14.8598C81.5169 14.8598 84.8709 11.5058 84.8709 7.38746C84.9134 3.35408 81.5593 0 77.441 0ZM0 11.6331V13.1615H2.97197V21.9925H4.67023V13.1615H7.68466V11.6331H0ZM55.7457 11.7182C55.491 11.7182 55.2787 11.8031 55.0664 11.9729C54.8541 12.1427 54.7692 12.355 54.7692 12.6947C54.7692 13.0343 54.8966 13.2466 55.0664 13.4164C55.2787 13.5863 55.491 13.6712 55.7457 13.6287C56.0005 13.6287 56.2128 13.5438 56.3826 13.374C56.5949 13.2042 56.6798 12.9919 56.6798 12.6522C56.6798 12.3126 56.5949 12.1003 56.3826 11.9304C56.2128 11.7606 56.0005 11.7182 55.7457 11.7182ZM34.8998 18.2563C34.6451 18.0864 34.3055 18.0015 33.9658 17.9166C33.6261 17.8317 33.244 17.7892 32.8619 17.7468C32.31 17.6619 31.8854 17.577 31.5882 17.492C31.291 17.3647 31.1637 17.1948 31.1637 16.8976C31.1637 16.7278 31.2061 16.6005 31.291 16.4731C31.3759 16.3457 31.4609 16.2608 31.6307 16.1759C31.758 16.091 31.9279 16.0061 32.0977 15.9636C32.2675 15.9211 32.4798 15.8787 32.6496 15.8787C32.8195 15.8787 33.0317 15.8787 33.2016 15.9211C33.4139 15.9636 33.5837 16.0061 33.7111 16.091C33.8809 16.1759 33.9658 16.2608 34.0932 16.3882C34.1781 16.5155 34.263 16.6429 34.263 16.8127H35.6641C35.6641 16.4731 35.6216 16.1334 35.4518 15.8787C35.282 15.624 35.0697 15.4117 34.8149 15.1994C34.5177 15.0296 34.2205 14.8597 33.8384 14.7748C33.4563 14.6899 33.0742 14.6474 32.6496 14.6474C32.2675 14.6474 31.8854 14.6899 31.5033 14.7748C31.1212 14.8597 30.824 14.9871 30.5268 15.1994C30.2296 15.3692 30.0173 15.624 29.8475 15.8787C29.6777 16.1334 29.5928 16.4731 29.5928 16.8552C29.5928 17.2798 29.7201 17.577 29.89 17.8317C30.1022 18.0864 30.3145 18.2563 30.6117 18.3836C30.9089 18.511 31.2486 18.5959 31.6307 18.6808C31.8217 18.7021 32.0022 18.7339 32.1826 18.7657C32.3631 18.7976 32.5435 18.8294 32.7346 18.8507C33.2016 18.8931 33.5837 19.0205 33.8809 19.1479C34.1781 19.2752 34.3055 19.4875 34.3055 19.8272C34.3055 20.0394 34.263 20.2093 34.1356 20.3791C34.0083 20.5065 33.8809 20.6338 33.7535 20.7188C33.5837 20.8037 33.4139 20.8461 33.2016 20.8886C32.9893 20.931 32.8195 20.931 32.6072 20.931C32.501 20.931 32.4055 20.9204 32.31 20.9098C32.2145 20.8992 32.1189 20.8886 32.0128 20.8886C31.843 20.8461 31.6731 20.7612 31.5033 20.6763C31.3769 20.6131 31.2975 20.5263 31.2126 20.4335L31.2126 20.4335C31.1835 20.4017 31.1537 20.3692 31.1212 20.3366C31.0363 20.2093 30.9514 20.0394 30.9514 19.8696H29.3805C29.4229 20.2942 29.5078 20.6763 29.7201 20.9735C29.9324 21.2707 30.1447 21.483 30.4844 21.6528C30.7815 21.8226 31.1212 21.95 31.5033 22.0349C31.8854 22.1198 32.2675 22.1623 32.6496 22.1623C33.0317 22.1623 33.4139 22.1198 33.796 22.0349C34.1781 21.95 34.5177 21.8226 34.7725 21.6103C35.0272 21.3981 35.282 21.1858 35.4518 20.931C35.6216 20.6338 35.7065 20.2942 35.7065 19.9121C35.7065 19.4875 35.6216 19.1479 35.4518 18.8931C35.3669 18.5959 35.1546 18.4261 34.8998 18.2563ZM12.9073 15.1996C12.695 15.0298 12.4403 14.9024 12.1431 14.8175C11.8459 14.7326 11.5487 14.6901 11.294 14.6901C11.0817 14.6901 10.8694 14.7326 10.6571 14.775C10.4448 14.8175 10.2326 14.9024 10.0627 14.9873C9.8929 15.0722 9.72307 15.1996 9.55325 15.3694C9.38342 15.5392 9.29851 15.7091 9.21359 15.8789C9.21359 15.5817 9.12868 15.3694 8.95885 15.1996C8.83148 15.0298 8.6192 14.9024 8.40692 14.8175C8.19463 14.7326 7.93989 14.6901 7.68515 14.6901C7.46277 14.6901 7.24039 14.7225 6.98976 14.7589H6.98975L6.87848 14.775V15.8789C7.0483 15.8789 7.21813 15.8789 7.30304 15.9213C7.43041 15.9638 7.47287 16.0063 7.51533 16.0912C7.55778 16.1761 7.60024 16.261 7.60024 16.3884V16.8129V21.9502H9.21359V17.8319C9.21359 17.5347 9.25605 17.28 9.38342 17.0677C9.46833 16.8554 9.5957 16.6856 9.76553 16.5582C9.93536 16.4308 10.1476 16.3035 10.3599 16.261C10.4238 16.2482 10.4914 16.2316 10.5607 16.2146C10.7216 16.1752 10.8908 16.1336 11.0392 16.1336C11.4638 16.1336 11.8459 16.2185 12.1856 16.3884L12.9073 15.1996ZM19.7852 20.634C19.8276 20.7189 19.8701 20.8038 19.9974 20.8463C20.0824 20.8887 20.2522 20.8887 20.4645 20.8463V22.0351C20.2097 22.12 19.955 22.12 19.7002 22.12C19.4455 22.12 19.2332 22.0775 19.0209 21.9501C18.8087 21.8652 18.6813 21.6954 18.5539 21.4831C18.4265 21.2708 18.3841 20.9736 18.3841 20.5915C18.2143 21.101 17.8746 21.4831 17.4076 21.7379C16.9406 22.0351 16.4311 22.1624 15.9216 22.1624C15.4121 22.1624 14.9451 22.0775 14.5205 21.9077C14.096 21.7379 13.7563 21.4831 13.5016 21.1435C13.2468 20.8038 13.0346 20.4217 12.9072 19.9971C12.7374 19.5726 12.6949 19.1055 12.6949 18.5961C12.6949 18.0017 12.8223 17.4497 13.0346 16.9827C13.2468 16.4732 13.5016 16.0911 13.8837 15.7515C14.2658 15.4118 14.6904 15.1571 15.1574 14.9872C15.6669 14.8174 16.1763 14.7325 16.7707 14.7325C17.2802 14.7325 17.7897 14.775 18.2567 14.9023C18.7662 14.9872 19.2332 15.1571 19.7002 15.3694V19.8698V20.2943C19.7002 20.4217 19.7427 20.5491 19.7852 20.634ZM17.6203 19.997C17.96 19.5725 18.1298 19.063 18.1298 18.3837V16.1759C17.8751 16.091 17.6203 16.0061 17.3656 15.9636C17.1109 15.9212 16.8561 15.9212 16.6438 15.9212C16.3042 15.9212 15.9645 15.9636 15.7098 16.091C15.4126 16.2184 15.2003 16.3882 14.988 16.6005C14.7758 16.8128 14.6484 17.11 14.521 17.4072C14.3936 17.7468 14.3087 18.0865 14.3087 18.4686C14.3087 19.1479 14.4361 19.6574 14.7758 20.0395C15.1154 20.4216 15.5824 20.6339 16.2617 20.6339C16.8561 20.6339 17.3232 20.4216 17.6203 19.997ZM26.7903 14.9448C27.1724 15.1147 27.4696 15.327 27.6819 15.5817C27.9366 15.8789 28.1065 16.1761 28.064 16.6007C28.1914 16.9828 28.2338 17.4073 28.2338 17.8319V21.9927H26.6205V17.8319C26.6205 17.28 26.4931 16.8129 26.1535 16.5157C25.8563 16.2185 25.4317 16.0487 24.9647 16.0487C24.7099 16.0487 24.4552 16.0912 24.2429 16.1761C24.0306 16.261 23.8608 16.3884 23.691 16.5582C23.5211 16.728 23.3938 16.8979 23.3089 17.1526C23.2239 17.3649 23.1815 17.6196 23.1815 17.9168V21.9502H21.5681V16.8979V16.3884C21.5681 16.261 21.5257 16.1761 21.4832 16.0912C21.4408 16.0063 21.3983 15.9638 21.2709 15.9213C21.186 15.8789 21.0162 15.8789 20.8464 15.8789V14.775C21.1011 14.7326 21.3983 14.6901 21.653 14.6901C21.9078 14.6901 22.1625 14.7326 22.3748 14.775C22.5871 14.8599 22.7569 14.9873 22.8843 15.1571C23.0117 15.327 23.0966 15.5817 23.0966 15.9213C23.1815 15.6666 23.3513 15.4968 23.5211 15.327C23.691 15.1571 23.9033 15.0298 24.1155 14.9448C24.3278 14.8599 24.5401 14.775 24.7948 14.7326C25.0496 14.6901 25.2619 14.6901 25.5166 14.6901C26.0261 14.6901 26.4507 14.775 26.7903 14.9448ZM52.0094 14.9448C52.3915 15.1147 52.6887 15.327 52.901 15.5817C53.1557 15.8789 53.3256 16.1761 53.3256 16.6007C53.4529 16.9828 53.4954 17.4073 53.4954 17.8319V21.9927H51.882V17.8319C51.882 17.28 51.7547 16.8129 51.415 16.5157C51.1178 16.2185 50.6932 16.0487 50.2262 16.0487C49.9715 16.0487 49.7167 16.0912 49.5045 16.1761C49.2922 16.261 49.1223 16.3884 48.9525 16.5582C48.7827 16.728 48.6553 16.8979 48.5704 17.1526C48.4855 17.3649 48.443 17.6196 48.443 17.9168V21.9502H46.8297V16.8979V16.3884C46.8297 16.261 46.7872 16.1761 46.7448 16.0912C46.7023 16.0063 46.6599 15.9638 46.5325 15.9213C46.4476 15.8789 46.2778 15.8789 46.1079 15.8789V14.775C46.3202 14.7326 46.6174 14.6901 46.8721 14.6901C47.1269 14.6901 47.3816 14.7326 47.5939 14.775C47.8062 14.8599 47.976 14.9873 48.1034 15.1571C48.2308 15.327 48.3157 15.5817 48.3157 15.9213C48.4006 15.6666 48.5704 15.4968 48.7402 15.327C48.9101 15.1571 49.1223 15.0298 49.3346 14.9448C49.5469 14.8599 49.7592 14.775 50.0139 14.7326C50.2687 14.6901 50.481 14.6901 50.7357 14.6901C51.2452 14.6901 51.6698 14.775 52.0094 14.9448ZM56.5522 14.8597H54.9388V21.9924H56.5522V14.8597ZM62.8357 14.9448C63.3027 15.1146 63.7273 15.3269 64.0669 15.6241C64.4066 15.9213 64.7038 16.3034 64.8736 16.7704C65.0859 17.2374 65.2133 17.7469 65.2133 18.3838C65.2133 18.9782 65.0859 19.5301 64.8736 19.9971C64.6613 20.5066 64.3641 20.8887 64.0245 21.1859C63.6848 21.4831 63.3027 21.7379 62.8357 21.8652C62.3687 21.9926 61.9016 22.0775 61.4346 22.0775C60.9251 22.0775 60.5006 22.0351 60.0336 21.8652C59.609 21.7379 59.1844 21.4831 58.8448 21.1859C58.5051 20.8463 58.2079 20.4642 57.9956 19.9971C57.7833 19.5726 57.656 19.0206 57.656 18.3838C57.656 17.7469 57.7833 17.2374 57.9956 16.7704C58.2079 16.3034 58.5051 15.9213 58.8448 15.6241C59.1844 15.3269 59.609 15.1146 60.0336 14.9448C60.4581 14.8174 60.9251 14.7325 61.3922 14.7325C61.9016 14.7325 62.3687 14.775 62.8357 14.9448ZM62.9636 20.1243C63.1334 19.912 63.3032 19.6997 63.4306 19.4025C63.558 19.1054 63.6429 18.7657 63.6853 18.4685C63.6853 18.0864 63.6004 17.7467 63.473 17.4495C63.3457 17.1523 63.1758 16.8976 62.9636 16.7278C62.7513 16.5155 62.4965 16.3881 62.2418 16.3032C61.9871 16.2183 61.6899 16.1758 61.4351 16.1758C61.1804 16.2183 60.9256 16.2608 60.6709 16.3457C60.4162 16.4306 60.2039 16.6004 59.9916 16.7702C59.7793 16.9401 59.6519 17.1523 59.5246 17.4495C59.3972 17.7467 59.3547 18.0439 59.3547 18.426C59.3547 18.8082 59.3972 19.1478 59.5246 19.445C59.6519 19.7422 59.8218 19.9545 60.034 20.1668C60.2039 20.3366 60.4586 20.5064 60.7134 20.5913C60.9681 20.6762 61.2653 20.7187 61.52 20.7187C61.7748 20.7187 62.0295 20.6338 62.2843 20.5489C62.539 20.464 62.7937 20.3366 62.9636 20.1243ZM37.0221 18.5111V11.6331H38.7204V18.4686C38.7204 19.8272 39.7393 20.5915 41.0555 20.5915C42.3717 20.5915 43.3482 19.8272 43.3482 18.4686V11.6331H45.0464V18.5111C45.0464 20.8037 43.2208 22.1199 41.0555 22.1199C38.8478 22.1199 37.0221 20.8037 37.0221 18.5111ZM73.2374 19.1479V20.2942C73.2374 20.8461 73.3648 21.0584 74.0016 21.0159V22.0349C72.6006 22.2896 71.5392 22.1198 71.5392 20.3791V20.2093V17.7892C71.5392 17.2373 71.4118 16.7703 71.0721 16.4731C70.7749 16.1759 70.3504 16.0061 69.8833 16.0061C69.6286 16.0061 69.3739 16.0485 69.1616 16.1334C68.9493 16.2183 68.7795 16.3457 68.6096 16.5155C68.4398 16.6854 68.3125 16.8552 68.2275 17.1099C68.1426 17.3222 68.1002 17.577 68.1002 17.8742V21.9075H66.4868V16.8552V16.3457C66.4868 16.2183 66.4444 16.1334 66.4019 16.0485C66.3594 15.9636 66.317 15.9211 66.1896 15.8787C66.1047 15.8362 65.9349 15.8362 65.7651 15.8362V14.7324C65.9773 14.6899 66.2745 14.6474 66.5293 14.6474C66.784 14.6474 67.0387 14.6899 67.251 14.7324C67.4633 14.8173 67.6331 14.9446 67.7605 15.1145C67.8879 15.2843 67.9728 15.539 67.9728 15.8787C68.0577 15.624 68.2275 15.4541 68.3974 15.2843C68.5672 15.1145 68.7795 14.9871 68.9918 14.9022C69.204 14.8173 69.4163 14.7324 69.6711 14.6899C69.9258 14.6474 70.1381 14.6474 70.3928 14.6474C70.9023 14.6474 71.3269 14.7324 71.6665 14.9022C72.0486 15.072 72.3458 15.2843 72.5581 15.539C72.7704 15.8362 72.9402 16.1334 73.0676 16.5155C73.195 16.8976 73.2374 17.3222 73.2374 17.7468V19.1479ZM81.2624 9.29805C81.5171 9.46787 81.8992 9.51033 82.1964 9.51033C82.4087 9.51033 82.5785 9.51033 82.7059 9.42542C82.6847 9.44664 82.6741 9.47849 82.6634 9.51033C82.6528 9.54217 82.6422 9.57401 82.621 9.59524L82.4936 9.84998L82.3663 10.1047L82.2389 10.3595C82.2177 10.3807 82.207 10.4019 82.1964 10.4231C82.1858 10.4444 82.1752 10.4656 82.154 10.4868C82.1384 10.4868 82.1058 10.4925 82.0645 10.4997C81.9929 10.5122 81.8951 10.5293 81.8143 10.5293C81.5171 10.5293 81.2624 10.5293 80.8378 10.4019C80.5406 10.2745 80.3283 10.1047 80.1585 9.84998C79.649 10.2745 79.0122 10.5293 78.4178 10.5293C77.7809 10.5293 77.3139 10.2745 76.9743 9.84998C76.6346 9.38296 76.5497 8.74611 76.762 8.15172L77.5686 5.68923H78.8424L77.9083 8.53383C77.7809 8.83102 77.8659 9.00085 77.9508 9.12822C78.0357 9.29805 78.248 9.3405 78.4178 9.3405C79.0122 9.3405 79.6915 8.83102 79.9038 8.19417L80.7104 5.73169H81.9841L81.0501 8.57628C81.0076 8.70365 81.0076 8.83102 81.0076 8.91594C81.0433 9.0942 81.1388 9.18265 81.2188 9.25671C81.2341 9.27083 81.2488 9.28444 81.2624 9.29805Z" fill="#979797"/>
</svg>
